# xmcd CD database file
# Copyright (C) 1997 Ti Kan
# 
# Track frame offsets:
#     150
#     11370
#     24472
#     35840
#     50262
#     63860
#     79492
#     93487
#     107292
#     119857
#     132695
#     146927
#     159080
#     169012
#     180195
#     191995
#     204505
#     215745
# 
# Disc length: 3041 seconds
# 
# Revision: 1
# Processed by: cddbd v1.4b41PL1 Copyright (c) Steve Scherf et al.
# Submitted via: DiscPlay 4.0.3
# 
DISCID=030bdf12
DTITLE=Bo Diddley - 500% More Man
DYEAR=1900
DGENRE=
TTITLE0=Bo Diddley
TTITLE1=500% More Man
TTITLE2=Bring It To Jerome
TTITLE3=Say Man
TTITLE4=Somebody's Cryin'
TTITLE5=Cops and Robbers
TTITLE6=Before You Accuse Me
TTITLE7=Bo Diddley Is Loose
TTITLE8=I'm A Man
TTITLE9=Dearest Darling
TTITLE10=Hong Kong
TTITLE11=Can I Go Home
TTITLE12=Hey Bo Diddley
TTITLE13=Whoa Mule
TTITLE14=Bo's Blues
TTITLE15=Pretty Thing
TTITLE16=Who Do You Love
TTITLE17=Road Runner
EXTD=
EXTT0=
EXTT1=
EXTT2=
EXTT3=
EXTT4=
EXTT5=
EXTT6=
EXTT7=
EXTT8=
EXTT9=
EXTT10=
EXTT11=
EXTT12=
EXTT13=
EXTT14=
EXTT15=
EXTT16=
EXTT17=
PLAYORDER=
